<?xml version="1.0" encoding="UTF-8" standalone="no"?>
<!-- Created with Inkscape (http://www.inkscape.org/) -->
<!-- Font: https://fonts.google.com/specimen/Ms+Madi -->

<svg
   width="72.131744mm"
   height="13.855816mm"
   viewBox="0 0 72.131744 13.855816"
   version="1.1"
   id="svg1"
   xmlns="http://www.w3.org/2000/svg"
   xmlns:svg="http://www.w3.org/2000/svg">
  <defs
     id="defs1" />
  <g
     id="layer1"
     transform="translate(-62.89454,-84.085786)">
    <path
       d="m 76.376131,95.53382 q -0.05644,0 -0.09031,-0.01129 -0.338667,-0.135467 -0.451556,-0.349956 -0.1016,-0.214489 -0.1016,-0.530579 0,-0.191911 0.02258,-0.383822 0.02258,-0.191911 0.05644,-0.383823 0.248356,-1.478846 0.880535,-2.889958 0.632178,-1.411113 1.512712,-2.67547 0.05644,-0.07902 0.05644,-0.169333 0,-0.07902 -0.06773,-0.112889 -0.05644,-0.03387 -0.146755,-0.03387 -0.191912,0 -0.383823,0.112889 -0.180622,0.112889 -0.3048,0.225778 -0.564445,0.485423 -1.117601,1.140179 -0.541868,0.643467 -0.993424,1.207912 -0.383822,0.508001 -0.756356,1.02729 -0.372534,0.51929 -0.72249,1.049868 -0.146755,0.237067 -0.3048,0.508001 -0.146756,0.259644 -0.3048,0.485422 -0.05644,0.112889 -0.180623,0.112889 -0.07902,0 -0.135466,-0.04515 -0.05644,-0.05644 -0.05644,-0.124178 0,-0.02258 0,-0.03387 0.01129,-0.01129 0.01129,-0.02258 0.383823,-1.106312 0.745067,-2.212624 0.372534,-1.106312 0.72249,-2.212625 0.03387,-0.1016 0.05644,-0.2032 0.02258,-0.1016 0.02258,-0.2032 0,-0.124178 -0.05644,-0.225778 -0.04516,-0.1016 -0.2032,-0.1016 -0.135467,0 -0.270934,0.06773 -0.124178,0.06773 -0.225778,0.135467 -0.180622,0.124178 -0.349956,0.282223 -0.169333,0.146755 -0.327378,0.293511 -0.62089,0.598312 -1.185335,1.264357 -0.553156,0.654756 -0.982134,1.377246 -0.4064,0.7112 -0.82409,1.422401 -0.4064,0.711201 -0.778934,1.444979 -0.07902,0.03387 -0.169333,0.03387 -0.05645,0 -0.135467,-0.02258 -0.07902,-0.02258 -0.07902,-0.1016 v -0.04516 q 0.270933,-0.699912 0.632178,-1.377246 0.372534,-0.688623 0.72249,-1.354668 0.146755,-0.282223 0.383822,-0.711201 0.248356,-0.440267 0.51929,-0.959557 0.282222,-0.519289 0.519289,-1.038578 0.248356,-0.51929 0.395112,-0.959557 0.158044,-0.451556 0.158044,-0.745067 0,-0.338667 -0.214489,-0.485423 -0.214489,-0.146756 -0.587023,-0.146756 -0.349956,0 -0.778934,0.1016 -0.417689,0.1016 -0.82409,0.259645 -0.395111,0.146756 -0.699911,0.3048 -0.41769,0.203201 -0.880535,0.553156 -0.462845,0.338667 -0.869245,0.767646 -0.4064,0.417689 -0.666045,0.880534 -0.248356,0.462845 -0.248356,0.914401 0,0.338667 0.2032,0.553156 0.203201,0.214489 0.62089,0.214489 0.270933,0 0.440267,-0.09031 0.180622,-0.09031 0.259645,-0.09031 0.07902,0 0.135467,0.05644 0.05644,0.05644 0.05644,0.124178 0,0.1016 -0.180622,0.180622 -0.180623,0.06773 -0.395112,0.101601 -0.214489,0.03387 -0.3048,0.03387 -0.587023,0 -0.880534,-0.3048 -0.293512,-0.316089 -0.293512,-0.801512 0,-0.327378 0.112889,-0.666045 0.112889,-0.338667 0.3048,-0.62089 0.270934,-0.395111 0.677334,-0.790223 0.41769,-0.395111 0.891824,-0.733778 0.485422,-0.338667 0.925689,-0.564445 0.496712,-0.259645 1.162757,-0.451556 0.677334,-0.191912 1.264357,-0.191912 0.474134,0 0.801512,0.191912 0.338667,0.180622 0.338667,0.643467 0,0.293512 -0.135467,0.711201 -0.124178,0.4064 -0.327378,0.857956 -0.191911,0.440267 -0.395111,0.846668 -0.191912,0.395111 -0.338667,0.666045 l 0.05644,0.02258 q 0.135467,-0.169334 0.372534,-0.462845 0.248356,-0.293512 0.553156,-0.632179 0.316089,-0.338667 0.654756,-0.632178 0.338667,-0.3048 0.654756,-0.496712 0.327378,-0.191911 0.587023,-0.191911 0.327378,0 0.440267,0.237067 0.124178,0.237067 0.124178,0.474134 0,0.112889 -0.02258,0.225778 -0.02258,0.112889 -0.04515,0.237067 -0.04516,0.225778 -0.135467,0.451556 -0.07902,0.225778 -0.146756,0.451556 l -0.6096,1.84009 0.05644,0.02258 q 0.417689,-0.620889 0.959557,-1.343379 0.553156,-0.72249 1.162756,-1.411112 0.609601,-0.688623 1.174046,-1.185335 0.2032,-0.191911 0.474134,-0.338667 0.282222,-0.158045 0.598312,-0.158045 0.225778,0 0.372533,0.112889 0.146756,0.101601 0.146756,0.304801 0,0.112889 -0.05644,0.225778 -0.04516,0.112889 -0.112889,0.214489 -0.530578,0.778934 -1.004712,1.704624 -0.462845,0.914401 -0.812801,1.873957 -0.338667,0.959557 -0.519289,1.873958 -0.03387,0.158044 -0.05644,0.327378 -0.02258,0.169333 -0.02258,0.327378 0,0.259645 0.05644,0.383823 0.06773,0.124177 0.146756,0.180622 0.09031,0.05644 0.146756,0.09031 0.06773,0.04516 0.06773,0.146756 0,0.146756 -0.146756,0.146756 z m 1.80622,-1.004713 q -0.169334,0 -0.282223,-0.112889 -0.1016,-0.112889 -0.1016,-0.282222 0,-0.169334 0.1016,-0.282223 0.112889,-0.112889 0.282223,-0.112889 0.169333,0 0.282222,0.112889 0.112889,0.112889 0.112889,0.282223 0,0.169333 -0.112889,0.282222 -0.112889,0.112889 -0.282222,0.112889 z m 13.817605,1.004713 q -0.05644,0 -0.09031,-0.01129 -0.338667,-0.135467 -0.451556,-0.349956 -0.1016,-0.214489 -0.1016,-0.530579 0,-0.191911 0.02258,-0.383822 0.02258,-0.191911 0.05644,-0.383823 0.248356,-1.478846 0.880535,-2.889958 0.632178,-1.411113 1.512712,-2.67547 0.05644,-0.07902 0.05644,-0.169333 0,-0.07902 -0.06773,-0.112889 -0.05644,-0.03387 -0.146755,-0.03387 -0.191912,0 -0.383823,0.112889 -0.180622,0.112889 -0.3048,0.225778 -0.564445,0.485423 -1.117601,1.140179 -0.541868,0.643467 -0.993424,1.207912 -0.383822,0.508001 -0.756356,1.02729 -0.372534,0.51929 -0.72249,1.049868 -0.146755,0.237067 -0.3048,0.508001 -0.146756,0.259644 -0.3048,0.485422 -0.05644,0.112889 -0.180623,0.112889 -0.07902,0 -0.135466,-0.04515 -0.05644,-0.05644 -0.05644,-0.124178 0,-0.02258 0,-0.03387 0.01129,-0.01129 0.01129,-0.02258 0.383823,-1.106312 0.745067,-2.212624 0.372534,-1.106312 0.72249,-2.212625 0.03387,-0.1016 0.05644,-0.2032 0.02258,-0.1016 0.02258,-0.2032 0,-0.124178 -0.05644,-0.225778 -0.04516,-0.1016 -0.2032,-0.1016 -0.135467,0 -0.270934,0.06773 -0.124178,0.06773 -0.225778,0.135467 -0.180622,0.124178 -0.349956,0.282223 -0.169333,0.146755 -0.327378,0.293511 -0.620889,0.598312 -1.185335,1.264357 -0.553156,0.654756 -0.982134,1.377246 -0.4064,0.7112 -0.82409,1.422401 -0.4064,0.711201 -0.778934,1.444979 -0.07902,0.03387 -0.169333,0.03387 -0.05644,0 -0.135467,-0.02258 -0.07902,-0.02258 -0.07902,-0.1016 v -0.04516 q 0.270933,-0.699912 0.632178,-1.377246 0.372534,-0.688623 0.72249,-1.354668 0.146755,-0.282223 0.383822,-0.711201 0.248356,-0.440267 0.51929,-0.959557 0.282222,-0.519289 0.519289,-1.038578 0.248356,-0.51929 0.395112,-0.959557 0.158044,-0.451556 0.158044,-0.745067 0,-0.338667 -0.214489,-0.485423 -0.214489,-0.146756 -0.587023,-0.146756 -0.349956,0 -0.778934,0.1016 -0.417689,0.1016 -0.824089,0.259645 -0.395112,0.146756 -0.699912,0.3048 -0.41769,0.203201 -0.880535,0.553156 -0.462844,0.338667 -0.869245,0.767646 -0.4064,0.417689 -0.666045,0.880534 -0.248356,0.462845 -0.248356,0.914401 0,0.338667 0.2032,0.553156 0.203201,0.214489 0.62089,0.214489 0.270934,0 0.440267,-0.09031 0.180622,-0.09031 0.259645,-0.09031 0.07902,0 0.135467,0.05644 0.05644,0.05644 0.05644,0.124178 0,0.1016 -0.180622,0.180622 -0.180623,0.06773 -0.395112,0.101601 -0.214489,0.03387 -0.3048,0.03387 -0.587023,0 -0.880534,-0.3048 -0.293512,-0.316089 -0.293512,-0.801512 0,-0.327378 0.112889,-0.666045 0.112889,-0.338667 0.304801,-0.62089 0.270933,-0.395111 0.677334,-0.790223 0.417689,-0.395111 0.891823,-0.733778 0.485422,-0.338667 0.92569,-0.564445 0.496711,-0.259645 1.162756,-0.451556 0.677334,-0.191912 1.264357,-0.191912 0.474134,0 0.801512,0.191912 0.338667,0.180622 0.338667,0.643467 0,0.293512 -0.135467,0.711201 -0.124178,0.4064 -0.327378,0.857956 -0.191911,0.440267 -0.395111,0.846668 -0.191912,0.395111 -0.338667,0.666045 l 0.05644,0.02258 q 0.135467,-0.169334 0.372534,-0.462845 0.248356,-0.293512 0.553156,-0.632179 0.316089,-0.338667 0.654756,-0.632178 0.338667,-0.3048 0.654756,-0.496712 0.327378,-0.191911 0.587023,-0.191911 0.327378,0 0.440267,0.237067 0.124178,0.237067 0.124178,0.474134 0,0.112889 -0.02258,0.225778 -0.02258,0.112889 -0.04515,0.237067 -0.04516,0.225778 -0.135467,0.451556 -0.07902,0.225778 -0.146756,0.451556 l -0.6096,1.84009 0.05644,0.02258 q 0.417689,-0.620889 0.959557,-1.343379 0.553156,-0.72249 1.162756,-1.411112 0.609601,-0.688623 1.174046,-1.185335 0.2032,-0.191911 0.474134,-0.338667 0.282222,-0.158045 0.598312,-0.158045 0.225778,0 0.372533,0.112889 0.146756,0.101601 0.146756,0.304801 0,0.112889 -0.05644,0.225778 -0.04516,0.112889 -0.112889,0.214489 -0.530579,0.778934 -1.004713,1.704624 -0.462845,0.914401 -0.8128,1.873957 -0.338667,0.959557 -0.51929,1.873958 -0.03387,0.158044 -0.05644,0.327378 -0.02258,0.169333 -0.02258,0.327378 0,0.259645 0.05644,0.383823 0.06773,0.124177 0.146756,0.180622 0.09031,0.05644 0.146756,0.09031 0.06773,0.04516 0.06773,0.146756 0,0.146756 -0.146756,0.146756 z m 3.262488,-0.880535 q -0.191911,0 -0.349956,-0.112889 -0.158044,-0.112889 -0.158044,-0.395111 0,-0.361245 0.180622,-0.767645 0.191911,-0.406401 0.474134,-0.891824 -0.361245,0.41769 -0.812801,0.903112 -0.440267,0.485423 -0.880534,0.778935 -0.383823,0.248355 -0.632179,0.248355 -0.2032,0 -0.3048,-0.135466 -0.112889,-0.135467 -0.112889,-0.349956 0,-0.248356 0.112889,-0.485423 0.248356,-0.587023 0.564445,-1.275646 0.316089,-0.699912 0.666045,-1.23049 0.03387,-0.04516 0.06773,-0.06773 0.04516,-0.03387 0.1016,-0.03387 0.07902,0 0.135466,0.04516 0.06773,0.04515 0.06773,0.112889 0,0.02258 -0.02258,0.06773 -0.06773,0.158045 -0.248356,0.508001 -0.169333,0.338667 -0.395111,0.778934 -0.225778,0.440267 -0.462845,0.903112 -0.180623,0.349956 -0.180623,0.6096 0,0.203201 0.146756,0.203201 0.06773,0 0.146756,-0.04516 0.338667,-0.191911 0.598312,-0.451556 0.259644,-0.259645 0.508,-0.530578 0.158045,-0.169334 0.3048,-0.338667 0.158045,-0.169334 0.304801,-0.349956 0.05644,-0.05644 0.214489,-0.270934 0.169333,-0.214489 0.372533,-0.474134 0.203201,-0.270933 0.361245,-0.474134 0.169334,-0.214489 0.2032,-0.259644 0.09031,-0.09031 0.270934,-0.09031 0.09031,0 0.158045,0.04516 0.07902,0.03387 0.07902,0.124178 0,0.07902 -0.112889,0.270934 -0.1016,0.180622 -0.248356,0.4064 -0.146756,0.214489 -0.282222,0.395112 -0.135467,0.180622 -0.191912,0.270933 -0.04515,0.07902 -0.169333,0.3048 -0.124178,0.21449 -0.270934,0.508001 -0.135467,0.282222 -0.237067,0.553156 -0.1016,0.270934 -0.1016,0.451556 0,0.2032 0.169334,0.2032 0.180622,0 0.417689,-0.225778 0.237067,-0.225778 0.496712,-0.553156 0.259644,-0.338667 0.485422,-0.666045 0.225778,-0.338667 0.383823,-0.564445 0.04516,-0.05644 0.09031,-0.06773 0.04516,-0.01129 0.06773,-0.01129 0.112889,0 0.135466,0.135467 0,0.03387 -0.07902,0.191911 -0.07902,0.158044 -0.158044,0.259645 -0.101601,0.146755 -0.31609,0.451556 -0.2032,0.293511 -0.474133,0.632178 -0.259645,0.327378 -0.575734,0.587023 -0.203201,0.169333 -0.508001,0.169333 z m 2.065867,-0.135466 q -0.553156,0 -0.846668,-0.225778 -0.293511,-0.225778 -0.293511,-0.474134 0,-0.180623 0.158045,-0.31609 0.146755,-0.146755 0.508,-0.146755 0.225778,0 0.541867,0.06773 0.237067,0.05644 0.496712,0.146756 0.270934,0.09031 0.553156,0.07902 0.07902,-0.124178 0.09031,-0.2032 0.01129,-0.07902 0.01129,-0.191911 0,-0.372534 -0.124178,-0.62089 -0.112889,-0.248356 -0.270933,-0.485423 -0.146756,-0.237066 -0.248356,-0.575733 -0.146756,0.248355 -0.372534,0.654756 -0.225778,0.395111 -0.745067,1.083734 -0.03387,0.05645 -0.135467,0.05645 -0.169334,0 -0.169334,-0.146756 0,-0.03387 0.05645,-0.1016 0.04516,-0.06773 0.225778,-0.349956 0.2032,-0.327378 0.474134,-0.733779 0.270933,-0.417689 0.519289,-0.9144 0.01129,-0.191912 0.07902,-0.372534 0.06773,-0.180623 0.158045,-0.327378 0.124178,-0.203201 0.259645,-0.293512 0.135467,-0.1016 0.248356,-0.1016 0.214489,0 0.214489,0.248356 0,0.169333 -0.135467,0.440267 -0.07902,0.169334 -0.2032,0.293512 -0.124178,0.112889 -0.214489,0.2032 0.02258,0.282222 0.135466,0.508 0.112889,0.225778 0.248356,0.440267 0.146756,0.214489 0.248356,0.462845 0.1016,0.248356 0.1016,0.598312 0,0.225778 -0.07902,0.417689 0.248356,0.01129 0.507996,-0.180622 0.27094,-0.2032 0.508,-0.51929 0.248363,-0.316089 0.440273,-0.643467 0.0564,-0.07902 0.14676,-0.07902 0.0564,0 0.11289,0.03387 0.0564,0.03387 0.0564,0.112889 0,0.04516 -0.0339,0.112889 -0.32737,0.587022 -0.632173,0.9144 -0.29352,0.31609 -0.59832,0.440268 -0.304796,0.124178 -0.67733,0.146755 -0.282222,0.259645 -0.6096,0.406401 -0.31609,0.135467 -0.711201,0.135467 z m -0.05645,-0.270934 q 0.259645,0 0.451556,-0.07902 0.191912,-0.07902 0.41769,-0.225778 -0.237067,-0.03387 -0.395112,-0.07902 -0.158044,-0.05644 -0.4064,-0.112889 -0.316089,-0.06773 -0.496712,-0.06773 -0.327378,0 -0.327378,0.158045 0,0.124177 0.214489,0.270933 0.214489,0.135467 0.541867,0.135467 z m 3.375399,0.564445 q -0.22578,0 -0.33867,-0.146756 -0.11289,-0.135467 -0.14676,-0.327378 -0.0339,-0.191911 -0.0339,-0.338667 0,-0.462845 0.16933,-1.038579 0.16934,-0.575734 0.39511,-1.151468 0.23707,-0.575733 0.42898,-1.027289 -0.2032,0.01129 -0.45155,0.06773 -0.23707,0.05644 -0.42898,0.05644 -0.15805,0 -0.15805,-0.135466 0,-0.191912 0.2032,-0.225778 0.24836,-0.05644 0.508,-0.09031 0.25965,-0.03387 0.508,-0.05644 0.0677,-0.124178 0.19192,-0.383823 0.12417,-0.259644 0.28222,-0.553156 0.15804,-0.3048 0.3048,-0.541867 0.15804,-0.248356 0.25964,-0.349956 0.0677,-0.06773 0.14676,-0.06773 0.079,0 0.13547,0.04515 0.0564,0.04516 0.0564,0.112889 0,0.03387 -0.0339,0.09031 -0.28222,0.349956 -0.47413,0.767646 -0.19191,0.417689 -0.38382,0.8128 0.2032,-0.02258 0.42897,-0.04516 0.22578,-0.02258 0.44027,-0.02258 0.0677,0 0.12418,0.02258 0.0677,0.02258 0.0677,0.1016 0,0.06773 -0.0677,0.112889 -0.0564,0.04516 -0.13547,0.06773 -0.24835,0.04516 -0.51929,0.07902 -0.25964,0.02258 -0.51929,0.05644 -0.14675,0.338667 -0.33866,0.756357 -0.19191,0.417689 -0.37254,0.869245 -0.16933,0.440267 -0.28222,0.857956 -0.11289,0.41769 -0.11289,0.756357 0,0.05644 0,0.191911 0.0113,0.124178 0.0564,0.225778 0.0452,0.1016 0.13546,0.1016 0.19191,0 0.27094,-0.1016 0.079,-0.1016 0.18062,-0.1016 0.079,0 0.13547,0.04516 0.0677,0.04516 0.0677,0.112889 0,0.101601 -0.13547,0.191912 -0.12418,0.09031 -0.29351,0.146755 -0.16933,0.05644 -0.27093,0.05644 z m 2.66419,-0.293511 q -0.58703,0 -0.82409,-0.338667 -0.22578,-0.349956 -0.22578,-0.812801 0,-0.338667 0.16933,-0.801512 0.16934,-0.474134 0.46285,-0.92569 0.3048,-0.451556 0.69991,-0.745067 0.39511,-0.304801 0.84667,-0.304801 0.29351,0 0.46284,0.169334 0.18063,0.158044 0.18063,0.4064 0,0.474134 -0.30481,0.914401 -0.3048,0.440267 -0.79022,0.72249 -0.48542,0.282222 -1.03858,0.282222 -0.0677,0 -0.13546,0 -0.0677,-0.01129 -0.13547,-0.02258 -0.0339,0.146756 -0.0339,0.338667 0,0.293512 0.13547,0.541868 0.14676,0.248355 0.55316,0.248355 0.33866,0 0.65475,-0.169333 0.31609,-0.169334 0.53058,-0.383823 0.21449,-0.214489 0.36124,-0.383822 0.14676,-0.169334 0.30481,-0.383823 0.15804,-0.225778 0.39511,-0.587023 0.0451,-0.07902 0.13546,-0.07902 0.15805,0 0.15805,0.169333 0,0.05644 -0.0226,0.09031 -0.3048,0.519289 -0.67733,0.993423 -0.37254,0.462845 -0.83538,0.767645 -0.45156,0.293512 -1.02729,0.293512 z m -0.28222,-1.783647 q 0.42897,0 0.80151,-0.225778 0.38382,-0.237067 0.62089,-0.587023 0.24835,-0.349955 0.24835,-0.7112 0,-0.124178 -0.0677,-0.2032 -0.0564,-0.07902 -0.2032,-0.07902 -0.29351,0 -0.56445,0.2032 -0.27093,0.191912 -0.49671,0.496712 -0.21449,0.293511 -0.37253,0.587023 -0.14676,0.293511 -0.21449,0.496711 0.0564,0.01129 0.11289,0.02258 0.0677,0 0.13547,0 z m 3.80434,1.828802 q -0.21449,0 -0.37253,-0.135467 -0.14676,-0.135466 -0.14676,-0.428978 0,-0.237067 0.0903,-0.485423 0.0903,-0.259644 0.16934,-0.4064 0.18062,-0.361245 0.38382,-0.666045 0.2032,-0.316089 0.3048,-0.451556 -0.2032,0.01129 -0.48542,-0.1016 -0.27094,-0.112889 -0.38383,-0.293512 -0.14675,0.214489 -0.41768,0.699912 -0.27094,0.474134 -0.68863,1.004712 -0.0677,0.09031 -0.15804,0.09031 -0.16934,0 -0.16934,-0.146755 0,-0.05645 0.0339,-0.1016 0.16933,-0.237067 0.41769,-0.609601 0.25964,-0.383823 0.49671,-0.790223 0.24836,-0.417689 0.39511,-0.745067 0.0452,-0.1016 0.0903,-0.214489 0.0564,-0.112889 0.1016,-0.21449 0.0452,-0.07902 0.12418,-0.135466 0.079,-0.06773 0.18062,-0.06773 0.0903,0 0.18063,0.07902 0.0903,0.06773 0.0903,0.158045 0,0.1016 -0.079,0.259645 -0.0677,0.146756 -0.14676,0.3048 -0.079,0.158045 -0.079,0.282223 0,0.1016 0.16933,0.135466 0.16934,0.03387 0.24836,0.03387 0.3048,0 0.508,-0.124178 0.2032,-0.124178 0.28222,-0.124178 0.0677,0 0.11289,0.05644 0.0564,0.04515 0.0564,0.1016 0,0.07902 -0.0677,0.135467 -0.15804,0.146755 -0.37253,0.417689 -0.21449,0.270934 -0.42898,0.587023 -0.21449,0.316089 -0.37254,0.620889 -0.0452,0.112889 -0.13546,0.31609 -0.079,0.2032 -0.079,0.383822 0,0.304801 0.21448,0.304801 0.0903,0 0.20321,-0.06773 0.12417,-0.06773 0.23706,-0.158044 0.27094,-0.248356 0.47414,-0.485423 0.21449,-0.248356 0.42897,-0.553156 0.21449,-0.304801 0.49672,-0.733779 0.0452,-0.07902 0.15804,-0.07902 0.14676,0 0.14676,0.135467 0,0.06773 -0.0677,0.191911 -0.15804,0.282222 -0.41769,0.620889 -0.24835,0.338667 -0.51929,0.643468 -0.25964,0.293511 -0.46284,0.451556 -0.36125,0.3048 -0.74507,0.3048 z m 2.56258,0.04516 q -0.0564,0 -0.12417,-0.03387 -0.0677,-0.03387 -0.0677,-0.09031 0,-0.03387 0.0113,-0.07902 0.0113,-0.04516 0.0226,-0.07902 0.12418,-0.282222 0.34996,-0.722489 0.22577,-0.440268 0.47413,-0.92569 0.24836,-0.496712 0.41769,-0.914401 0.16933,-0.417689 0.16933,-0.643467 0,-0.06773 -0.0339,-0.124178 -0.0226,-0.06773 -0.11289,-0.06773 -0.14676,0 -0.34996,0.146756 -0.19191,0.135467 -0.39511,0.372534 -0.11289,0.135466 -0.29351,0.395111 -0.18062,0.248356 -0.37254,0.541867 -0.19191,0.282223 -0.36124,0.530579 -0.15804,0.248355 -0.24836,0.349956 -0.079,0.112889 -0.19191,0.112889 -0.079,0 -0.11289,-0.05644 -0.0452,-0.05644 0,-0.135467 0.0903,-0.169333 0.27094,-0.451556 0.19191,-0.282222 0.39511,-0.587023 0.2032,-0.3048 0.37253,-0.541867 0.16934,-0.237067 0.21449,-0.3048 0.19191,-0.248356 0.46285,-0.474134 0.28222,-0.225778 0.64346,-0.225778 0.51929,0 0.51929,0.462845 0,0.214489 -0.1016,0.496712 -0.1016,0.282222 -0.29351,0.654756 0.36125,-0.372534 0.62089,-0.609601 0.27093,-0.237067 0.53058,-0.440267 0.25964,-0.214489 0.54187,-0.214489 0.23706,0 0.39511,0.169334 0.16933,0.169333 0.16933,0.496711 0,0.1016 -0.0226,0.237067 -0.0113,0.124178 -0.0677,0.349956 0.38382,-0.417689 0.8128,-0.733779 0.44027,-0.316089 0.8128,-0.519289 0.38382,-0.214489 0.59831,-0.270934 0.11289,-0.03387 0.21449,-0.05644 0.11289,-0.02258 0.2032,-0.02258 0.11289,0 0.18063,0.05644 0.0677,0.05644 0.0677,0.214489 0,0.158044 -0.2032,0.451556 -0.2032,0.282222 -0.49671,0.654756 -0.28223,0.361245 -0.54187,0.733778 -0.25964,0.372534 -0.37253,0.699912 -0.0564,0.191912 -0.0564,0.282223 0,0.3048 0.28222,0.3048 0.19192,0 0.46285,-0.180622 0.29351,-0.191912 0.63218,-0.62089 0.33866,-0.428978 0.63218,-0.880534 0.0677,-0.1016 0.18062,-0.1016 0.079,0 0.1016,0.04516 0.0226,0.03387 0.0226,0.06773 0,0.05644 -0.11289,0.270933 -0.1016,0.21449 -0.34996,0.541868 -0.31609,0.417689 -0.57573,0.666045 -0.24836,0.237067 -0.4064,0.327378 -0.14676,0.09031 -0.3048,0.135467 -0.15805,0.03387 -0.31609,0.03387 -0.36125,0 -0.51929,-0.146755 -0.15805,-0.158045 -0.15805,-0.372534 0,-0.293511 0.19192,-0.666045 0.2032,-0.372534 0.47413,-0.745068 0.27093,-0.383822 0.508,-0.688622 0.24836,-0.304801 0.33867,-0.440268 0.0451,-0.05644 0.0451,-0.112889 0,-0.09031 -0.12418,-0.09031 -0.0677,0 -0.15804,0.03387 -0.46285,0.191911 -0.9144,0.530578 -0.45156,0.327378 -0.8128,0.666045 -0.34996,0.338667 -0.54187,0.564445 -0.0452,0.158045 -0.12418,0.428979 -0.079,0.259644 -0.21449,0.462845 -0.13546,0.2032 -0.34995,0.2032 -0.1016,0 -0.16934,-0.06773 -0.0564,-0.07902 -0.0564,-0.158044 0,-0.293512 0.18062,-0.541868 0.18062,-0.248355 0.41769,-0.462844 0.0564,-0.191912 0.15805,-0.496712 0.1016,-0.316089 0.1016,-0.530578 0,-0.180623 -0.0903,-0.282223 -0.079,-0.1016 -0.2032,-0.1016 -0.14675,0 -0.29351,0.112889 -0.55315,0.383823 -0.98213,0.948268 -0.42898,0.553156 -0.76765,1.083734 -0.18062,0.259645 -0.33866,0.541867 -0.14676,0.282223 -0.32738,0.541868 -0.0339,0.04515 -0.0677,0.06773 -0.0339,0.02258 -0.10161,0.02258 z m 6.84109,-0.158045 q -0.37254,0 -0.51929,-0.191911 -0.13547,-0.2032 -0.13547,-0.485423 0,-0.270934 0.0903,-0.564445 0.0903,-0.293511 0.19191,-0.541867 0.11289,-0.259645 0.18063,-0.383823 0.2032,-0.349956 0.45155,-0.677334 0.25965,-0.327378 0.55316,-0.575734 0.29351,-0.259644 0.59831,-0.395111 0.31609,-0.146756 0.63218,-0.146756 0.54187,0 0.76764,0.293512 0.22578,0.282222 0.22578,0.6096 0,0.112889 -0.0339,0.237067 -0.0452,0.169334 -0.11288,0.293511 -0.0564,0.124178 -0.14676,0.124178 -0.079,0 -0.14676,-0.07902 -0.0677,-0.07902 -0.0452,-0.158045 0.0226,-0.07902 0.0564,-0.158044 0.0452,-0.07902 0.0564,-0.158045 0.0113,-0.05644 0.0113,-0.1016 0.0113,-0.04515 0.0113,-0.09031 0,-0.3048 -0.2032,-0.417689 -0.19192,-0.124178 -0.41769,-0.124178 -0.25965,0 -0.54187,0.146755 -0.27093,0.146756 -0.47414,0.338667 -0.24835,0.248356 -0.49671,0.575734 -0.24835,0.327378 -0.42897,0.666045 -0.0226,0.05645 -0.12418,0.270934 -0.0903,0.214489 -0.18063,0.485423 -0.079,0.259644 -0.079,0.485423 0,0.158044 0.0677,0.270933 0.079,0.112889 0.25964,0.112889 0.19191,0 0.44027,-0.180622 0.25964,-0.180623 0.51929,-0.440267 0.27093,-0.270934 0.48542,-0.51929 0.21449,-0.248356 0.31609,-0.383822 0.0677,-0.09031 0.12418,-0.191912 0.0677,-0.112889 0.13546,-0.2032 0.0339,-0.04516 0.13547,-0.04516 0.0903,0 0.18062,0.05645 0.1016,0.04516 0.079,0.135467 -0.0452,0.07902 -0.16934,0.349956 -0.11289,0.259644 -0.21449,0.575734 -0.1016,0.3048 -0.1016,0.541867 0,0.293511 0.18062,0.338667 0.12418,0.02258 0.25965,-0.09031 0.14676,-0.112889 0.25964,-0.259645 0.12418,-0.146756 0.18063,-0.214489 0.23706,-0.316089 0.44026,-0.643468 0.21449,-0.338667 0.42898,-0.632178 0.0677,-0.09031 0.15805,-0.09031 0.15804,0 0.15804,0.169333 0,0.05644 -0.14675,0.293512 -0.14676,0.225778 -0.36125,0.519289 -0.2032,0.293512 -0.38382,0.530579 -0.18062,0.237066 -0.4064,0.462844 -0.22578,0.225778 -0.57574,0.225778 -0.32737,0 -0.45155,-0.146755 -0.11289,-0.146756 -0.11289,-0.327378 0,-0.158045 0.0339,-0.327378 0.0339,-0.180623 0.0677,-0.304801 l -0.0452,-0.03387 q -0.1016,0.124178 -0.3048,0.31609 -0.2032,0.191911 -0.45155,0.395111 -0.24836,0.191912 -0.49671,0.327378 -0.23707,0.135467 -0.42898,0.135467 z m 4.36881,-0.01129 q -0.0564,0 -0.12418,-0.03387 -0.0677,-0.03387 -0.0677,-0.09031 0,-0.09031 0.0339,-0.158044 0.12417,-0.270934 0.31608,-0.666045 0.2032,-0.395112 0.39512,-0.812801 0.2032,-0.428978 0.33866,-0.801512 0.14676,-0.372534 0.14676,-0.598312 0,-0.06773 -0.0339,-0.124178 -0.0226,-0.06773 -0.11289,-0.06773 -0.13546,0 -0.27093,0.112889 -0.12418,0.112889 -0.22578,0.259645 -0.1016,0.135466 -0.16933,0.225778 -0.22578,0.3048 -0.38382,0.564445 -0.15805,0.248355 -0.32738,0.496711 -0.15805,0.237067 -0.39511,0.530578 -0.0339,0.04516 -0.079,0.07902 -0.0339,0.02258 -0.1016,0.02258 -0.0677,0 -0.11289,-0.06773 -0.0564,-0.06773 -0.0226,-0.124178 0.24835,-0.395111 0.48542,-0.745067 0.23707,-0.361245 0.41769,-0.62089 0.18062,-0.259644 0.24835,-0.349956 0.19192,-0.248355 0.39512,-0.474133 0.21449,-0.225778 0.57573,-0.225778 0.3048,0 0.41769,0.169333 0.12418,0.169334 0.12418,0.395112 0,0.4064 -0.33867,1.049867 0.41769,-0.440267 0.89182,-0.801512 0.48543,-0.361244 0.90312,-0.598311 0.41768,-0.248356 0.63217,-0.304801 0.1016,-0.03387 0.2032,-0.05644 0.11289,-0.02258 0.2032,-0.02258 0.11289,0 0.18063,0.05644 0.079,0.05644 0.079,0.214489 0,0.158044 -0.2032,0.451556 -0.2032,0.282222 -0.49671,0.654756 -0.28223,0.361245 -0.54187,0.733778 -0.25964,0.372534 -0.37253,0.699912 -0.0339,0.07902 -0.0452,0.158045 -0.0113,0.06773 -0.0113,0.124178 0,0.3048 0.28222,0.3048 0.18063,0 0.45156,-0.180622 0.15804,-0.1016 0.3048,-0.225778 0.15804,-0.135467 0.23707,-0.237067 0.16933,-0.191912 0.27093,-0.327378 0.11289,-0.135467 0.21449,-0.293512 0.11289,-0.169333 0.28222,-0.417689 0.0339,-0.05644 0.0677,-0.07902 0.0339,-0.02258 0.11288,-0.02258 0.12418,0 0.12418,0.158044 0,0.06773 -0.1016,0.237067 -0.1016,0.158045 -0.24835,0.361245 -0.13547,0.191911 -0.27094,0.361245 -0.12417,0.158045 -0.18062,0.225778 -0.12418,0.146756 -0.31609,0.3048 -0.18062,0.158045 -0.37253,0.270934 -0.18062,0.1016 -0.37254,0.146756 -0.19191,0.04515 -0.37253,0.04515 -0.29351,0 -0.42898,-0.169333 -0.12418,-0.169334 -0.12418,-0.361245 0,-0.293512 0.19192,-0.666045 0.2032,-0.383823 0.47413,-0.756357 0.28222,-0.383822 0.51929,-0.688622 0.24835,-0.304801 0.33867,-0.440268 0.0226,-0.03387 0.0339,-0.05644 0.0113,-0.03387 0.0113,-0.05644 0,-0.09031 -0.13547,-0.09031 -0.0677,0 -0.15804,0.03387 -0.46284,0.191911 -0.97085,0.564445 -0.49671,0.372534 -0.92569,0.812801 -0.41768,0.428978 -0.66604,0.812801 l -0.45156,0.7112 q -0.0564,0.09031 -0.1016,0.191912 -0.0452,0.09031 -0.1016,0.180622 -0.0677,0.09031 -0.16933,0.09031 z m 5.20419,0 q -0.0565,0 -0.12418,-0.03387 -0.0677,-0.03387 -0.0677,-0.09031 0,-0.09031 0.0339,-0.158044 0.12418,-0.270934 0.31609,-0.666045 0.2032,-0.395112 0.39512,-0.812801 0.2032,-0.428978 0.33866,-0.801512 0.14676,-0.372534 0.14676,-0.598312 0,-0.06773 -0.0339,-0.124178 -0.0226,-0.06773 -0.11289,-0.06773 -0.13546,0 -0.27093,0.112889 -0.12418,0.112889 -0.22578,0.259645 -0.1016,0.135466 -0.16933,0.225778 -0.22578,0.3048 -0.38383,0.564445 -0.15804,0.248355 -0.32737,0.496711 -0.15805,0.237067 -0.39511,0.530578 -0.0339,0.04516 -0.079,0.07902 -0.0339,0.02258 -0.1016,0.02258 -0.0677,0 -0.11289,-0.06773 -0.0564,-0.06773 -0.0226,-0.124178 0.24835,-0.395111 0.48542,-0.745067 0.23707,-0.361245 0.41769,-0.62089 0.18062,-0.259644 0.24835,-0.349956 0.19192,-0.248355 0.39512,-0.474133 0.21448,-0.225778 0.57573,-0.225778 0.3048,0 0.41769,0.169333 0.12418,0.169334 0.12418,0.395112 0,0.4064 -0.33867,1.049867 0.41769,-0.440267 0.89182,-0.801512 0.48543,-0.361244 0.90311,-0.598311 0.41769,-0.248356 0.63218,-0.304801 0.1016,-0.03387 0.2032,-0.05644 0.11289,-0.02258 0.2032,-0.02258 0.11289,0 0.18063,0.05644 0.079,0.05644 0.079,0.214489 0,0.158044 -0.2032,0.451556 -0.2032,0.282222 -0.49671,0.654756 -0.28223,0.361245 -0.54187,0.733778 -0.25965,0.372534 -0.37253,0.699912 -0.0339,0.07902 -0.0452,0.158045 -0.0113,0.06773 -0.0113,0.124178 0,0.3048 0.28222,0.3048 0.18063,0 0.45156,-0.180622 0.15804,-0.1016 0.3048,-0.225778 0.15804,-0.135467 0.23707,-0.237067 0.16933,-0.191912 0.27093,-0.327378 0.11289,-0.135467 0.21449,-0.293512 0.11289,-0.169333 0.28222,-0.417689 0.0339,-0.05644 0.0677,-0.07902 0.0339,-0.02258 0.11288,-0.02258 0.12418,0 0.12418,0.158044 0,0.06773 -0.1016,0.237067 -0.1016,0.158045 -0.24835,0.361245 -0.13547,0.191911 -0.27094,0.361245 -0.12418,0.158045 -0.18062,0.225778 -0.12418,0.146756 -0.31609,0.3048 -0.18062,0.158045 -0.37253,0.270934 -0.18063,0.1016 -0.37254,0.146756 -0.19191,0.04515 -0.37253,0.04515 -0.29351,0 -0.42898,-0.169333 -0.12418,-0.169334 -0.12418,-0.361245 0,-0.293512 0.19192,-0.666045 0.2032,-0.383823 0.47413,-0.756357 0.28222,-0.383822 0.51929,-0.688622 0.24835,-0.304801 0.33867,-0.440268 0.0226,-0.03387 0.0339,-0.05644 0.0113,-0.03387 0.0113,-0.05644 0,-0.09031 -0.13547,-0.09031 -0.0677,0 -0.15804,0.03387 -0.46285,0.191911 -0.97085,0.564445 -0.49671,0.372534 -0.92569,0.812801 -0.41769,0.428978 -0.66604,0.812801 l -0.45156,0.7112 q -0.0564,0.09031 -0.1016,0.191912 -0.0451,0.09031 -0.1016,0.180622 -0.0677,0.09031 -0.16933,0.09031 z"
       id="signature"
       style="font-size:11.2889px;font-family:'ms madi';-inkscape-font-specification:'ms madi';stroke-width:0.264583"
       aria-label="M. Mustermann" />
  </g>
</svg>
